<svg id="svg" version="1.1" xmlns="http://www.w3.org/2000/svg" xmlns:xlink="http://www.w3.org/1999/xlink" width="400" height="659.047619047619" viewBox="0, 0, 400,659.047619047619"><g id="svgg"><path id="path0" d="M192.947 12.900 C 189.702 15.749,189.827 14.631,189.584 43.000 C 189.465 56.860,189.330 68.243,189.284 68.296 C 189.238 68.348,188.279 69.409,187.152 70.653 C 182.092 76.241,181.890 82.294,186.569 88.150 C 190.870 93.533,190.306 98.260,184.960 101.649 C 171.927 109.911,171.905 127.676,184.917 135.924 C 189.503 138.831,188.984 133.161,189.112 181.742 C 189.220 222.775,189.197 224.334,188.428 228.200 C 187.989 230.400,186.897 236.970,186.000 242.800 C 182.783 263.713,176.968 295.706,175.530 300.400 C 174.651 303.271,172.894 304.252,165.111 306.220 C 148.707 310.367,123.219 319.374,112.084 324.958 C 109.728 326.139,105.161 328.288,101.937 329.732 C 22.643 365.250,-11.124 404.848,10.817 436.587 C 20.789 451.012,44.986 457.706,88.800 458.160 C 90.450 458.177,94.725 457.968,98.300 457.695 C 122.459 455.854,121.275 455.375,116.241 464.964 C 106.930 482.698,94.566 509.488,91.857 517.800 C 86.604 533.921,86.523 557.988,91.658 577.195 C 101.429 613.738,130.369 643.580,166.400 654.266 C 235.742 674.831,307.375 614.375,301.804 539.989 C 300.435 521.718,296.471 510.519,279.057 475.719 C 272.645 462.907,270.256 458.422,261.063 441.942 C 254.024 429.325,253.925 428.712,258.646 426.998 C 314.060 406.886,366.277 375.272,386.253 349.740 C 410.599 318.623,393.752 292.360,345.000 285.427 C 340.281 284.756,319.563 283.094,306.800 282.363 C 296.068 281.748,272.449 282.495,261.703 283.789 C 246.756 285.589,242.070 286.374,228.200 289.403 C 218.260 291.574,213.703 292.027,212.726 290.943 C 211.434 289.508,206.658 264.049,201.815 232.776 L 200.789 226.153 200.895 182.718 C 201.015 133.042,200.502 138.827,205.040 135.951 C 218.115 127.662,218.115 109.938,205.040 101.649 C 199.694 98.260,199.130 93.533,203.431 88.150 C 207.874 82.589,207.880 76.211,203.447 71.305 C 200.694 68.257,200.800 69.399,200.800 42.863 C 200.800 16.830,200.825 17.153,198.550 14.170 C 197.534 12.838,195.744 11.600,194.834 11.600 C 194.611 11.600,193.762 12.185,192.947 12.900 M197.874 72.825 C 202.756 74.670,204.133 81.533,200.333 85.081 C 195.752 89.358,188.187 86.672,187.683 80.590 C 187.197 74.730,192.408 70.760,197.874 72.825 M199.800 108.543 C 208.186 112.466,208.565 123.942,200.466 128.703 C 197.714 130.321,192.286 130.321,189.534 128.703 C 179.338 122.709,183.251 107.608,195.000 107.608 C 197.098 107.608,198.301 107.842,199.800 108.543 M195.924 268.534 C 197.055 270.854,200.396 297.714,199.773 299.484 C 198.981 301.738,197.094 301.246,192.511 297.589 C 186.372 292.692,186.278 292.286,189.009 282.457 C 193.103 267.717,194.326 265.256,195.924 268.534 M316.000 292.330 C 328.574 292.649,330.543 292.787,333.200 293.538 C 335.416 294.165,337.350 294.389,340.600 294.396 C 353.855 294.425,374.285 304.313,380.530 313.721 C 392.025 331.039,370.615 354.268,312.000 388.071 C 287.782 402.038,252.861 417.220,248.643 415.617 C 245.012 414.236,228.817 362.355,218.172 318.000 C 214.631 303.244,214.656 303.030,220.122 301.238 C 223.240 300.216,242.612 296.538,249.000 295.756 C 251.640 295.432,255.060 294.821,256.600 294.398 C 258.140 293.974,261.110 293.424,263.200 293.174 C 265.290 292.924,267.180 292.608,267.400 292.471 C 268.624 291.710,289.202 291.650,316.000 292.330 M170.806 317.807 C 172.940 320.378,155.482 382.696,146.212 405.600 C 138.257 425.255,129.094 443.003,126.106 444.544 C 124.602 445.319,117.207 446.026,106.400 446.429 C 101.450 446.613,95.510 446.942,93.200 447.160 C 87.677 447.680,73.034 447.691,71.000 447.177 C 70.120 446.954,67.060 446.621,64.200 446.437 C 51.400 445.612,42.293 443.695,28.511 438.927 C 23.791 437.293,15.355 425.388,13.967 418.400 C 13.187 414.471,15.195 407.076,19.044 399.703 C 22.958 392.207,22.316 393.054,28.388 387.367 C 47.650 369.323,75.551 353.556,109.033 341.794 C 117.728 338.739,118.151 338.539,120.000 336.601 C 121.791 334.725,125.387 332.601,129.200 331.166 C 130.850 330.545,134.810 329.028,138.000 327.793 C 141.190 326.559,148.930 323.833,155.200 321.736 C 161.470 319.640,166.870 317.766,167.200 317.574 C 168.164 317.012,170.259 317.148,170.806 317.807 M195.570 321.257 C 205.884 324.694,208.497 327.791,213.150 342.095 C 216.191 351.441,215.710 353.191,207.200 363.744 C 195.186 378.641,168.746 395.363,165.364 390.202 C 164.426 388.769,163.992 390.588,173.187 357.400 C 175.199 350.140,177.835 340.510,179.046 336.000 C 184.313 316.380,183.395 317.199,195.570 321.257 M220.584 375.849 C 221.432 376.174,222.427 378.200,223.804 382.400 C 225.594 387.860,231.282 403.243,234.153 410.388 C 236.925 417.288,237.177 418.510,236.211 420.379 C 235.176 422.381,228.670 424.717,221.800 425.554 C 219.820 425.795,214.150 427.064,209.200 428.373 C 204.250 429.682,197.320 431.413,193.800 432.219 C 190.280 433.026,185.600 434.137,183.400 434.689 C 177.447 436.183,172.541 437.199,169.400 437.586 C 167.860 437.776,164.890 438.202,162.800 438.533 C 145.951 441.199,144.987 440.722,149.192 431.800 C 150.333 429.380,152.332 424.700,153.635 421.400 C 157.360 411.966,158.024 411.101,161.929 410.600 C 181.375 408.103,197.451 398.422,215.231 378.500 C 217.836 375.581,218.730 375.138,220.584 375.849 M244.281 434.961 C 244.909 435.490,245.684 436.435,246.004 437.061 C 248.437 441.836,253.850 451.480,257.757 458.000 C 266.681 472.895,280.000 501.976,280.000 506.566 C 280.000 507.924,277.884 509.486,275.375 509.980 C 260.578 512.893,253.191 515.462,236.800 523.394 C 219.900 531.573,200.851 538.827,188.000 541.979 C 168.164 546.843,141.340 544.282,112.000 534.721 C 100.056 530.829,100.247 531.216,104.253 519.055 C 111.712 496.408,119.262 479.981,129.004 465.200 C 136.275 454.168,135.166 454.754,153.600 452.195 C 177.804 448.835,213.236 441.853,227.598 437.612 C 228.367 437.385,230.046 437.009,231.329 436.777 C 232.612 436.544,234.953 435.829,236.531 435.188 C 240.199 433.698,242.693 433.625,244.281 434.961 M285.461 530.811 C 290.510 532.571,290.163 559.501,284.869 576.800 C 270.103 625.050,216.902 652.675,164.343 639.383 C 127.266 630.007,101.655 597.243,101.607 559.126 C 101.595 549.028,101.739 548.956,113.600 553.189 C 139.609 562.471,169.885 565.154,190.465 560.000 C 198.307 558.036,202.766 556.160,213.400 550.352 C 232.501 539.919,251.957 533.839,275.200 531.040 C 280.938 530.349,283.942 530.282,285.461 530.811 " stroke="none" fill="#55b4ab" fill-rule="evenodd"></path><path id="path1" d="M0.000 329.400 L 0.000 658.800 200.000 658.800 L 400.000 658.800 400.000 329.400 L 400.000 0.000 200.000 0.000 L 0.000 0.000 0.000 329.400 M196.354 12.176 C 196.967 12.493,197.956 13.391,198.550 14.170 C 200.825 17.153,200.800 16.830,200.800 42.863 C 200.800 69.399,200.694 68.257,203.447 71.305 C 207.880 76.211,207.874 82.589,203.431 88.150 C 199.130 93.533,199.694 98.260,205.040 101.649 C 218.115 109.938,218.115 127.662,205.040 135.951 C 200.502 138.827,201.015 133.042,200.895 182.718 L 200.789 226.153 201.815 232.776 C 206.658 264.049,211.434 289.508,212.726 290.943 C 213.703 292.027,218.260 291.574,228.200 289.403 C 242.070 286.374,246.756 285.589,261.703 283.789 C 272.449 282.495,296.068 281.748,306.800 282.363 C 319.563 283.094,340.281 284.756,345.000 285.427 C 393.752 292.360,410.599 318.623,386.253 349.740 C 366.277 375.272,314.060 406.886,258.646 426.998 C 253.925 428.712,254.024 429.325,261.063 441.942 C 275.590 467.984,284.893 486.534,293.689 507.000 C 310.682 546.536,301.654 592.899,270.800 624.550 C 221.746 674.872,147.966 668.170,105.982 609.579 C 100.300 601.650,94.982 589.627,91.658 577.195 C 86.523 557.988,86.604 533.921,91.857 517.800 C 94.566 509.488,106.930 482.698,116.241 464.964 C 121.275 455.375,122.459 455.854,98.300 457.695 C 86.917 458.563,72.659 457.942,53.600 455.748 C 20.805 451.974,4.127 438.544,4.240 416.000 C 4.376 388.850,39.810 357.560,101.937 329.732 C 105.161 328.288,109.728 326.139,112.084 324.958 C 123.219 319.374,148.707 310.367,165.111 306.220 C 172.894 304.252,174.651 303.271,175.530 300.400 C 176.968 295.706,182.783 263.713,186.000 242.800 C 186.897 236.970,187.989 230.400,188.428 228.200 C 189.197 224.334,189.220 222.775,189.112 181.742 C 188.984 133.161,189.503 138.831,184.917 135.924 C 171.905 127.676,171.927 109.911,184.960 101.649 C 190.306 98.260,190.870 93.533,186.569 88.150 C 181.890 82.294,182.092 76.241,187.152 70.653 C 188.279 69.409,189.238 68.348,189.284 68.296 C 189.330 68.243,189.465 56.860,189.584 43.000 C 189.827 14.631,189.702 15.749,192.947 12.900 C 194.630 11.423,194.819 11.383,196.354 12.176 M191.793 72.957 C 186.217 75.387,186.192 83.909,191.754 86.435 C 196.885 88.765,202.514 85.294,202.514 79.800 C 202.514 74.384,196.836 70.760,191.793 72.957 M190.200 108.543 C 181.814 112.466,181.435 123.942,189.534 128.703 C 192.286 130.321,197.714 130.321,200.466 128.703 C 210.662 122.709,206.749 107.608,195.000 107.608 C 192.902 107.608,191.699 107.842,190.200 108.543 M193.839 267.957 C 192.575 269.353,187.200 287.681,187.200 290.595 C 187.200 292.798,188.268 294.204,192.511 297.589 C 200.870 304.258,201.225 302.692,197.386 276.105 C 196.200 267.893,195.452 266.174,193.839 267.957 M276.400 291.971 C 271.670 292.109,267.620 292.334,267.400 292.471 C 267.180 292.608,265.290 292.924,263.200 293.174 C 261.110 293.424,258.140 293.974,256.600 294.398 C 255.060 294.821,251.640 295.432,249.000 295.756 C 242.612 296.538,223.240 300.216,220.122 301.238 C 214.656 303.030,214.631 303.244,218.172 318.000 C 228.817 362.355,245.012 414.236,248.643 415.617 C 251.709 416.782,281.150 404.915,299.000 395.318 C 359.440 362.826,388.703 335.924,382.769 318.309 C 378.944 306.952,356.864 294.432,340.600 294.396 C 337.350 294.389,335.416 294.165,333.200 293.538 C 329.089 292.376,294.861 291.432,276.400 291.971 M167.200 317.574 C 166.870 317.766,161.470 319.640,155.200 321.736 C 148.930 323.833,141.190 326.559,138.000 327.793 C 134.810 329.028,130.850 330.545,129.200 331.166 C 125.387 332.601,121.791 334.725,120.000 336.601 C 118.151 338.539,117.728 338.739,109.033 341.794 C 75.551 353.556,47.650 369.323,28.388 387.367 C 22.316 393.054,22.958 392.207,19.044 399.703 C 15.195 407.076,13.187 414.471,13.967 418.400 C 15.355 425.388,23.791 437.293,28.511 438.927 C 42.293 443.695,51.400 445.612,64.200 446.437 C 67.060 446.621,70.120 446.954,71.000 447.177 C 73.034 447.691,87.677 447.680,93.200 447.160 C 95.510 446.942,101.450 446.613,106.400 446.429 C 117.207 446.026,124.602 445.319,126.106 444.544 C 129.094 443.003,138.257 425.255,146.212 405.600 C 155.482 382.696,172.940 320.378,170.806 317.807 C 170.259 317.148,168.164 317.012,167.200 317.574 M184.418 319.921 C 183.162 321.177,182.468 323.252,179.046 336.000 C 177.835 340.510,175.199 350.140,173.187 357.400 C 166.978 379.811,165.263 386.143,164.982 387.702 C 163.061 398.335,193.010 381.339,207.200 363.744 C 215.710 353.191,216.191 351.441,213.150 342.095 C 208.497 327.791,205.884 324.694,195.570 321.257 C 187.144 318.448,186.024 318.314,184.418 319.921 M215.231 378.500 C 197.451 398.422,181.375 408.103,161.929 410.600 C 158.024 411.101,157.360 411.966,153.635 421.400 C 152.332 424.700,150.333 429.380,149.192 431.800 C 144.987 440.722,145.951 441.199,162.800 438.533 C 164.890 438.202,167.860 437.776,169.400 437.586 C 172.541 437.199,177.447 436.183,183.400 434.689 C 185.600 434.137,190.280 433.026,193.800 432.219 C 197.320 431.413,204.250 429.682,209.200 428.373 C 214.150 427.064,219.820 425.795,221.800 425.554 C 228.670 424.717,235.176 422.381,236.211 420.379 C 237.177 418.510,236.925 417.288,234.153 410.388 C 231.282 403.243,225.594 387.860,223.804 382.400 C 221.149 374.301,219.605 373.599,215.231 378.500 M236.531 435.188 C 234.953 435.829,232.612 436.544,231.329 436.777 C 230.046 437.009,228.367 437.385,227.598 437.612 C 213.236 441.853,177.804 448.835,153.600 452.195 C 135.166 454.754,136.275 454.168,129.004 465.200 C 119.262 479.981,111.712 496.408,104.253 519.055 C 100.247 531.216,100.056 530.829,112.000 534.721 C 141.340 544.282,168.164 546.843,188.000 541.979 C 200.851 538.827,219.900 531.573,236.800 523.394 C 253.191 515.462,260.578 512.893,275.375 509.980 C 277.884 509.486,280.000 507.924,280.000 506.566 C 280.000 501.976,266.681 472.895,257.757 458.000 C 253.850 451.480,248.437 441.836,246.004 437.061 C 244.329 433.775,241.423 433.200,236.531 435.188 M275.200 531.040 C 251.957 533.839,232.501 539.919,213.400 550.352 C 202.766 556.160,198.307 558.036,190.465 560.000 C 169.885 565.154,139.609 562.471,113.600 553.189 C 101.739 548.956,101.595 549.028,101.607 559.126 C 101.683 619.694,162.984 658.331,225.000 636.899 C 265.199 623.006,288.829 590.108,288.792 548.086 C 288.776 529.786,288.499 529.438,275.200 531.040 " stroke="none" fill="#fbfbfb" fill-rule="evenodd"></path></g></svg>