<?xml version="1.0" encoding="UTF-8" standalone="no"?>
<!DOCTYPE svg PUBLIC "-//W3C//DTD SVG 1.1//EN" "http://www.w3.org/Graphics/SVG/1.1/DTD/svg11.dtd">
<svg xmlns="http://www.w3.org/2000/svg" version="1.1" viewBox="0.00 0.00 512.00 512.00">
<g stroke-width="2.00" fill="none" stroke-linecap="butt">
<path stroke="#e3907e" vector-effect="non-scaling-stroke" d="
  M 194.52 109.34
  L 277.18 196.49"
/>
<path stroke="#dc8778" vector-effect="non-scaling-stroke" d="
  M 277.18 196.49
  L 318.50 211.27"
/>
<path stroke="#febfb0" vector-effect="non-scaling-stroke" d="
  M 440.30 344.19
  Q 441.52 335.50 438.03 328.23
  Q 436.01 324.02 428.26 316.21
  C 415.26 303.11 402.00 290.22 389.16 276.97
  C 379.24 266.73 369.67 261.53 355.15 256.22
  Q 305.42 238.03 255.51 219.84
  A 4.20 4.20 0.0 0 1 253.90 218.78
  L 63.87 18.11"
/>
<path stroke="#dd9688" vector-effect="non-scaling-stroke" d="
  M 419.74 339.10
  L 385.57 305.60"
/>
<path stroke="#febfb0" vector-effect="non-scaling-stroke" d="
  M 385.57 305.60
  Q 377.08 301.04 369.84 305.59
  C 363.99 309.26 363.02 314.32 363.01 321.43
  Q 362.95 388.01 363.09 454.91"
/>
<path stroke="#febfb0" vector-effect="non-scaling-stroke" d="
  M 332.66 425.70
  Q 333.14 423.18 333.11 420.00
  Q 332.92 404.50 332.98 388.99
  Q 333.00 384.11 332.10 382.13
  C 329.84 377.15 321.58 376.59 318.68 381.17
  Q 317.34 383.29 317.31 387.96
  Q 317.11 415.26 317.33 442.78"
/>
<path stroke="#febfb0" vector-effect="non-scaling-stroke" d="
  M 287.27 412.09
  Q 287.21 391.07 287.20 369.75
  C 287.20 361.98 275.86 359.38 272.47 366.42
  Q 271.47 368.50 271.47 373.22
  Q 271.49 401.79 271.51 430.52"
/>
<path stroke="#febfb0" vector-effect="non-scaling-stroke" d="
  M 241.49 387.32
  Q 241.41 373.21 241.43 358.75
  C 241.45 350.57 229.92 347.76 226.55 355.29
  Q 225.71 357.16 225.70 361.33
  Q 225.65 383.47 225.76 405.91"
/>
<path stroke="#f5a798" vector-effect="non-scaling-stroke" d="
  M 195.65 317.34
  C 221.95 312.61 222.09 276.24 196.05 271.71
  C 192.98 271.18 189.22 271.40 185.83 271.28"
/>
<path stroke="#fbb2a2" vector-effect="non-scaling-stroke" d="
  M 184.44 269.67
  Q 186.24 268.39 188.02 267.09
  C 202.83 256.28 199.33 233.29 182.36 227.24
  Q 177.87 225.64 169.50 225.68
  Q 161.41 225.72 152.95 226.07"
/>
<path stroke="#febfb0" vector-effect="non-scaling-stroke" d="
  M 152.95 226.07
  Q 152.97 225.81 152.54 225.52"
/>
<path stroke="#f5a798" vector-effect="non-scaling-stroke" d="
  M 152.54 225.52
  Q 167.00 221.17 169.97 208.37
  C 172.67 196.75 166.91 185.58 155.68 181.37
  Q 152.05 180.01 146.06 179.98
  Q 136.25 179.93 125.93 180.16"
/>
<path stroke="#fbb2a2" vector-effect="non-scaling-stroke" d="
  M 125.93 180.16
  L 110.66 179.97
  A 0.26 0.26 0.0 0 1 110.61 179.45
  C 132.24 174.73 135.45 144.64 114.83 135.98
  Q 110.90 134.34 103.95 134.17
  Q 94.57 133.95 84.59 134.27"
/>
<path stroke="#febfb0" vector-effect="non-scaling-stroke" d="
  M 84.59 134.27
  Q 72.29 133.93 67.25 134.35
  Q 60.76 134.90 54.50 139.83"
/>
<path stroke="#c16656" vector-effect="non-scaling-stroke" d="
  M 277.18 196.49
  Q 271.85 177.89 267.08 167.73
  Q 261.57 156.00 255.20 149.56
  Q 235.18 129.30 215.00 109.26
  Q 206.06 100.38 193.77 100.90"
/>
<path stroke="#faa392" vector-effect="non-scaling-stroke" d="
  M 84.59 134.27
  Q 94.27 137.62 98.80 144.76
  Q 104.36 153.51 101.28 163.83
  Q 98.02 174.78 85.51 179.74"
/>
<path stroke="#f08b79" vector-effect="non-scaling-stroke" d="
  M 125.93 180.16
  Q 135.91 182.99 140.78 190.94
  C 149.67 205.49 140.93 222.22 124.83 225.71"
/>
<path stroke="#f49888" vector-effect="non-scaling-stroke" d="
  M 152.54 225.52
  L 124.99 225.78"
/>
<path stroke="#faa392" vector-effect="non-scaling-stroke" d="
  M 152.95 226.07
  Q 167.53 230.21 170.40 243.25
  Q 172.80 254.18 166.24 262.78
  Q 160.77 269.94 150.97 271.55"
/>
<path stroke="#f08b79" vector-effect="non-scaling-stroke" d="
  M 179.68 271.23
  L 171.14 271.70
  A 0.11 0.11 0.0 0 0 171.12 271.91
  C 186.04 275.78 194.03 292.16 185.95 305.99
  Q 181.19 314.14 170.56 317.33"
/>
<path stroke="#dc8778" vector-effect="non-scaling-stroke" d="
  M 385.57 305.60
  C 381.16 306.11 379.01 307.55 379.01 312.33
  Q 378.99 372.54 379.01 432.75
  Q 379.01 445.78 367.72 453.16"
/>
<path stroke="#c16656" vector-effect="non-scaling-stroke" d="
  M 487.99 459.23
  Q 457.26 428.47 426.45 397.75
  C 421.75 393.07 417.22 390.64 410.99 392.94
  Q 402.67 396.00 402.61 405.50
  Q 402.55 414.92 402.51 424.34
  Q 402.47 437.88 401.35 443.09
  Q 397.92 459.15 384.46 469.84"
/>
</g>
<path fill="#fdb0a0" d="
  M 83.24 0.00
  L 88.75 0.00
  Q 91.87 1.22 92.69 2.07
  Q 117.31 27.55 194.52 109.34
  L 277.18 196.49
  L 318.50 211.27
  Q 318.88 211.91 319.24 212.04
  Q 348.96 222.89 378.69 233.75
  Q 388.43 237.31 393.02 239.82
  C 403.75 245.67 409.00 251.48 420.23 262.66
  Q 437.61 279.96 454.95 297.30
  C 469.25 311.60 464.91 334.05 446.75 342.52
  Q 443.92 343.84 440.30 344.19
  Q 441.52 335.50 438.03 328.23
  Q 436.01 324.02 428.26 316.21
  C 415.26 303.11 402.00 290.22 389.16 276.97
  C 379.24 266.73 369.67 261.53 355.15 256.22
  Q 305.42 238.03 255.51 219.84
  A 4.20 4.20 0.0 0 1 253.90 218.78
  L 63.87 18.11
  Q 73.27 7.23 83.24 0.00
  Z"
/>
<path fill="#ffcec0" d="
  M 63.87 18.11
  L 253.90 218.78
  A 4.20 4.20 0.0 0 0 255.51 219.84
  Q 305.42 238.03 355.15 256.22
  C 369.67 261.53 379.24 266.73 389.16 276.97
  C 402.00 290.22 415.26 303.11 428.26 316.21
  Q 436.01 324.02 438.03 328.23
  Q 441.52 335.50 440.30 344.19
  Q 429.03 345.71 419.74 339.10
  L 385.57 305.60
  Q 377.08 301.04 369.84 305.59
  C 363.99 309.26 363.02 314.32 363.01 321.43
  Q 362.95 388.01 363.09 454.91
  Q 349.97 459.11 339.74 449.50
  C 334.71 444.77 333.16 438.71 333.06 431.90
  Q 333.02 428.90 332.66 425.70
  Q 333.14 423.18 333.11 420.00
  Q 332.92 404.50 332.98 388.99
  Q 333.00 384.11 332.10 382.13
  C 329.84 377.15 321.58 376.59 318.68 381.17
  Q 317.34 383.29 317.31 387.96
  Q 317.11 415.26 317.33 442.78
  C 306.44 445.83 296.33 441.94 290.47 432.60
  C 286.58 426.40 287.17 419.02 287.27 412.09
  Q 287.21 391.07 287.20 369.75
  C 287.20 361.98 275.86 359.38 272.47 366.42
  Q 271.47 368.50 271.47 373.22
  Q 271.49 401.79 271.51 430.52
  C 259.62 433.83 247.06 428.41 242.84 416.68
  Q 241.51 412.99 241.48 405.17
  Q 241.44 396.34 241.49 387.32
  Q 241.41 373.21 241.43 358.75
  C 241.45 350.57 229.92 347.76 226.55 355.29
  Q 225.71 357.16 225.70 361.33
  Q 225.65 383.47 225.76 405.91
  Q 210.33 410.02 200.71 398.24
  C 195.58 391.97 195.67 385.89 195.65 376.66
  Q 195.58 347.14 195.65 317.34
  C 221.95 312.61 222.09 276.24 196.05 271.71
  C 192.98 271.18 189.22 271.40 185.83 271.28
  L 184.44 269.67
  Q 186.24 268.39 188.02 267.09
  C 202.83 256.28 199.33 233.29 182.36 227.24
  Q 177.87 225.64 169.50 225.68
  Q 161.41 225.72 152.95 226.07
  Q 152.97 225.81 152.54 225.52
  Q 167.00 221.17 169.97 208.37
  C 172.67 196.75 166.91 185.58 155.68 181.37
  Q 152.05 180.01 146.06 179.98
  Q 136.25 179.93 125.93 180.16
  L 110.66 179.97
  A 0.26 0.26 0.0 0 1 110.61 179.45
  C 132.24 174.73 135.45 144.64 114.83 135.98
  Q 110.90 134.34 103.95 134.17
  Q 94.57 133.95 84.59 134.27
  Q 72.29 133.93 67.25 134.35
  Q 60.76 134.90 54.50 139.83
  Q 30.03 115.34 6.22 91.54
  Q 0.86 86.19 3.20 80.33
  Q 4.28 77.63 9.63 72.29
  Q 36.84 45.10 63.87 18.11
  Z"
/>
<path fill="#ba5d4f" d="
  M 318.50 211.27
  L 277.18 196.49
  Q 271.85 177.89 267.08 167.73
  Q 261.57 156.00 255.20 149.56
  Q 235.18 129.30 215.00 109.26
  Q 206.06 100.38 193.77 100.90
  C 194.68 76.37 224.35 66.65 241.12 83.39
  Q 271.53 113.76 279.65 122.10
  C 287.93 130.62 292.33 139.70 296.88 152.05
  Q 307.77 181.62 318.50 211.27
  Z"
/>
<path fill="#c86f5c" d="
  M 277.18 196.49
  L 194.52 109.34
  L 193.77 100.90
  Q 206.06 100.38 215.00 109.26
  Q 235.18 129.30 255.20 149.56
  Q 261.57 156.00 267.08 167.73
  Q 271.85 177.89 277.18 196.49
  Z"
/>
<path fill="#fdb0a0" d="
  M 84.59 134.27
  Q 94.27 137.62 98.80 144.76
  Q 104.36 153.51 101.28 163.83
  Q 98.02 174.78 85.51 179.74
  Q 78.82 180.18 70.23 180.01
  C 48.69 179.58 39.52 155.75 54.29 140.17
  Q 54.40 140.05 54.54 140.00
  Q 54.75 139.93 54.50 139.83
  Q 60.76 134.90 67.25 134.35
  Q 72.29 133.93 84.59 134.27
  Z"
/>
<path fill="#f69583" d="
  M 125.93 180.16
  Q 135.91 182.99 140.78 190.94
  C 149.67 205.49 140.93 222.22 124.83 225.71
  Q 114.35 225.83 103.75 225.74
  Q 96.30 225.68 92.40 224.21
  C 73.76 217.16 72.88 192.80 89.55 182.80
  C 90.92 181.98 92.99 181.42 94.69 180.65
  A 0.31 0.31 0.0 0 0 94.57 180.05
  L 85.51 179.74
  Q 98.02 174.78 101.28 163.83
  Q 104.36 153.51 98.80 144.76
  Q 94.27 137.62 84.59 134.27
  Q 94.57 133.95 103.95 134.17
  Q 110.90 134.34 114.83 135.98
  C 135.45 144.64 132.24 174.73 110.61 179.45
  A 0.26 0.26 0.0 0 0 110.66 179.97
  L 125.93 180.16
  Z"
/>
<path fill="#ea806f" d="
  M 125.93 180.16
  Q 136.25 179.93 146.06 179.98
  Q 152.05 180.01 155.68 181.37
  C 166.91 185.58 172.67 196.75 169.97 208.37
  Q 167.00 221.17 152.54 225.52
  L 124.99 225.78
  Q 124.91 225.74 124.83 225.71
  C 140.93 222.22 149.67 205.49 140.78 190.94
  Q 135.91 182.99 125.93 180.16
  Z"
/>
<path fill="#fdb0a0" d="
  M 152.54 225.52
  Q 152.97 225.81 152.95 226.07
  Q 167.53 230.21 170.40 243.25
  Q 172.80 254.18 166.24 262.78
  Q 160.77 269.94 150.97 271.55
  Q 140.72 271.49 130.31 271.49
  Q 123.95 271.49 120.29 270.20
  C 108.86 266.17 102.94 254.97 105.67 243.20
  Q 108.88 229.36 124.99 225.78
  L 152.54 225.52
  Z"
/>
<path fill="#f69583" d="
  M 184.44 269.67
  L 179.68 271.23
  L 171.14 271.70
  A 0.11 0.11 0.0 0 0 171.12 271.91
  C 186.04 275.78 194.03 292.16 185.95 305.99
  Q 181.19 314.14 170.56 317.33
  Q 163.31 317.59 160.74 317.03
  C 136.07 311.62 135.14 278.07 160.10 271.93
  A 0.12 0.12 0.0 0 0 160.07 271.69
  L 150.97 271.55
  Q 160.77 269.94 166.24 262.78
  Q 172.80 254.18 170.40 243.25
  Q 167.53 230.21 152.95 226.07
  Q 161.41 225.72 169.50 225.68
  Q 177.87 225.64 182.36 227.24
  C 199.33 233.29 202.83 256.28 188.02 267.09
  Q 186.24 268.39 184.44 269.67
  Z"
/>
<path fill="#ea806f" d="
  M 179.68 271.23
  L 185.83 271.28
  C 189.22 271.40 192.98 271.18 196.05 271.71
  C 222.09 276.24 221.95 312.61 195.65 317.34
  L 170.56 317.33
  Q 181.19 314.14 185.95 305.99
  C 194.03 292.16 186.04 275.78 171.12 271.91
  A 0.11 0.11 0.0 0 1 171.14 271.70
  L 179.68 271.23
  Z"
/>
<path fill="#fdb0a0" d="
  M 385.57 305.60
  C 381.16 306.11 379.01 307.55 379.01 312.33
  Q 378.99 372.54 379.01 432.75
  Q 379.01 445.78 367.72 453.16
  L 363.09 454.91
  Q 362.95 388.01 363.01 321.43
  C 363.02 314.32 363.99 309.26 369.84 305.59
  Q 377.08 301.04 385.57 305.60
  Z"
/>
<path fill="#ba5d4f" d="
  M 385.57 305.60
  L 419.74 339.10
  Q 461.71 381.35 503.90 423.29
  C 510.43 429.78 511.78 435.29 505.15 442.11
  Q 496.66 450.85 487.99 459.23
  Q 457.26 428.47 426.45 397.75
  C 421.75 393.07 417.22 390.64 410.99 392.94
  Q 402.67 396.00 402.61 405.50
  Q 402.55 414.92 402.51 424.34
  Q 402.47 437.88 401.35 443.09
  Q 397.92 459.15 384.46 469.84
  L 367.72 453.16
  Q 379.01 445.78 379.01 432.75
  Q 378.99 372.54 379.01 312.33
  C 379.01 307.55 381.16 306.11 385.57 305.60
  Z"
/>
<path fill="#fdb0a0" d="
  M 241.49 387.32
  Q 238.52 401.35 225.76 405.91
  Q 225.65 383.47 225.70 361.33
  Q 225.71 357.16 226.55 355.29
  C 229.92 347.76 241.45 350.57 241.43 358.75
  Q 241.41 373.21 241.49 387.32
  Z"
/>
<path fill="#fdb0a0" d="
  M 287.27 412.09
  Q 284.17 426.08 271.51 430.52
  Q 271.49 401.79 271.47 373.22
  Q 271.47 368.50 272.47 366.42
  C 275.86 359.38 287.20 361.98 287.20 369.75
  Q 287.21 391.07 287.27 412.09
  Z"
/>
<path fill="#fdb0a0" d="
  M 332.66 425.70
  Q 329.39 438.54 317.33 442.78
  Q 317.11 415.26 317.31 387.96
  Q 317.34 383.29 318.68 381.17
  C 321.58 376.59 329.84 377.15 332.10 382.13
  Q 333.00 384.11 332.98 388.99
  Q 332.92 404.50 333.11 420.00
  Q 333.14 423.18 332.66 425.70
  Z"
/>
<path fill="#c86f5c" d="
  M 487.99 459.23
  Q 463.61 483.69 439.29 508.03
  Q 436.07 511.26 432.12 512.00
  L 429.75 512.00
  Q 425.84 511.21 422.71 508.04
  Q 415.10 500.33 384.46 469.84
  Q 397.92 459.15 401.35 443.09
  Q 402.47 437.88 402.51 424.34
  Q 402.55 414.92 402.61 405.50
  Q 402.67 396.00 410.99 392.94
  C 417.22 390.64 421.75 393.07 426.45 397.75
  Q 457.26 428.47 487.99 459.23
  Z"
/>
</svg>
