<?xml version="1.0" encoding="UTF-8" standalone="no"?>
<!DOCTYPE svg PUBLIC "-//W3C//DTD SVG 1.1//EN" "http://www.w3.org/Graphics/SVG/1.1/DTD/svg11.dtd">
<svg xmlns="http://www.w3.org/2000/svg" version="1.1" viewBox="0.00 0.00 500.00 500.00">
<g stroke-width="2.00" fill="none" stroke-linecap="butt">
<path stroke="#86a1a3" vector-effect="non-scaling-stroke" d="
  M 244.95 222.35
  A 64.87 64.87 0.0 0 0 180.08 157.48
  A 64.87 64.87 0.0 0 0 115.21 222.35
  A 64.87 64.87 0.0 0 0 180.08 287.22
  A 64.87 64.87 0.0 0 0 244.95 222.35"
/>
<path stroke="#86a1a3" vector-effect="non-scaling-stroke" d="
  M 240.24 222.33
  A 60.15 60.15 0.0 0 0 180.09 162.18
  A 60.15 60.15 0.0 0 0 119.94 222.33
  A 60.15 60.15 0.0 0 0 180.09 282.48
  A 60.15 60.15 0.0 0 0 240.24 222.33"
/>
<path stroke="#86a1a3" vector-effect="non-scaling-stroke" d="
  M 400.26 309.95
  A 53.80 53.80 0.0 0 0 346.46 256.15
  A 53.80 53.80 0.0 0 0 292.66 309.95
  A 53.80 53.80 0.0 0 0 346.46 363.75
  A 53.80 53.80 0.0 0 0 400.26 309.95"
/>
<path stroke="#86a1a3" vector-effect="non-scaling-stroke" d="
  M 398.11 309.95
  A 51.63 51.63 0.0 0 0 346.48 258.32
  A 51.63 51.63 0.0 0 0 294.85 309.95
  A 51.63 51.63 0.0 0 0 346.48 361.58
  A 51.63 51.63 0.0 0 0 398.11 309.95"
/>
</g>
<path fill="#616e7e" d="
  M 100.30 174.96
  L 89.90 159.68
  A 0.77 0.76 45.5 0 1 89.90 158.81
  Q 97.24 148.29 106.93 139.91
  A 0.80 0.79 -51.8 0 1 107.82 139.80
  L 124.45 148.50
  Q 124.82 148.70 125.17 148.46
  L 134.15 142.36
  Q 134.62 142.04 134.58 141.47
  L 133.21 123.19
  Q 133.17 122.61 133.69 122.35
  Q 145.24 116.56 157.97 114.44
  Q 158.53 114.34 158.84 114.82
  L 168.88 130.63
  Q 169.08 130.95 169.45 130.93
  L 180.55 130.32
  Q 180.93 130.30 181.10 129.96
  L 189.24 112.90
  Q 189.46 112.44 189.97 112.49
  Q 202.68 113.90 214.93 117.50
  A 0.78 0.77 7.4 0 1 215.49 118.21
  L 216.27 137.28
  Q 216.29 137.72 216.68 137.91
  L 226.49 142.71
  Q 226.94 142.93 227.36 142.65
  L 242.75 132.12
  Q 243.20 131.82 243.63 132.13
  Q 254.02 139.55 262.50 149.07
  Q 262.94 149.56 262.63 150.14
  L 253.93 166.58
  Q 253.70 167.03 253.98 167.44
  L 259.99 176.38
  Q 260.29 176.83 260.84 176.79
  L 279.22 175.54
  Q 279.84 175.50 280.12 176.06
  Q 285.82 187.57 288.09 200.20
  Q 288.19 200.72 287.74 201.00
  L 271.82 211.06
  Q 271.44 211.29 271.47 211.74
  L 272.11 222.69
  Q 272.14 223.23 272.62 223.46
  L 289.29 231.35
  Q 289.87 231.62 289.81 232.25
  Q 288.71 245.04 284.84 257.26
  Q 284.71 257.68 284.26 257.70
  L 265.23 258.50
  A 0.89 0.89 0.0 0 0 264.46 259.01
  L 259.87 268.54
  Q 259.63 269.05 259.93 269.53
  Q 264.99 277.67 269.30 283.46
  C 270.92 285.63 269.89 286.49 268.38 288.46
  Q 262.45 296.21 255.49 302.98
  Q 254.37 304.07 252.99 304.79
  A 1.13 1.11 -44.5 0 1 251.94 304.79
  L 235.90 296.15
  Q 235.42 295.90 234.98 296.20
  L 225.96 302.28
  Q 225.55 302.55 225.58 303.05
  L 226.96 321.50
  Q 227.00 322.03 226.52 322.27
  Q 214.98 328.03 202.29 330.23
  Q 201.68 330.34 201.34 329.82
  L 191.31 314.11
  Q 191.03 313.67 190.50 313.70
  L 179.71 314.34
  A 0.82 0.82 0.0 0 0 179.03 314.79
  L 171.01 331.56
  Q 170.74 332.13 170.11 332.07
  Q 157.62 330.84 145.61 327.25
  A 1.34 1.33 7.7 0 1 144.66 326.02
  L 143.94 307.54
  Q 143.92 306.93 143.37 306.67
  L 133.53 301.99
  Q 133.17 301.82 132.85 302.04
  L 117.97 312.14
  A 1.74 1.73 -43.9 0 1 115.98 312.11
  Q 105.97 304.89 97.75 295.69
  A 1.18 1.17 -52.0 0 1 97.59 294.35
  L 106.28 278.03
  Q 106.49 277.62 106.24 277.24
  L 100.18 268.26
  A 1.05 1.03 -18.3 0 0 99.24 267.80
  L 81.01 269.14
  Q 80.37 269.18 80.08 268.61
  Q 74.40 257.08 72.05 244.45
  Q 71.96 243.95 72.39 243.68
  L 88.32 233.62
  A 0.80 0.80 0.0 0 0 88.70 232.89
  L 88.07 221.82
  A 0.77 0.77 0.0 0 0 87.62 221.17
  Q 79.39 217.52 71.47 213.50
  Q 70.07 212.79 70.34 211.55
  Q 70.57 210.52 70.58 210.47
  Q 71.73 198.69 75.29 187.44
  A 0.79 0.78 -82.0 0 1 76.01 186.89
  L 95.10 186.11
  A 0.78 0.77 -78.6 0 0 95.77 185.66
  L 100.38 175.90
  Q 100.61 175.41 100.30 174.96
  Z
  M 244.95 222.35
  A 64.87 64.87 0.0 0 0 180.08 157.48
  A 64.87 64.87 0.0 0 0 115.21 222.35
  A 64.87 64.87 0.0 0 0 180.08 287.22
  A 64.87 64.87 0.0 0 0 244.95 222.35
  Z"
/>
<path fill="#aad4c8" d="
  M 244.95 222.35
  A 64.87 64.87 0.0 0 1 180.08 287.22
  A 64.87 64.87 0.0 0 1 115.21 222.35
  A 64.87 64.87 0.0 0 1 180.08 157.48
  A 64.87 64.87 0.0 0 1 244.95 222.35
  Z
  M 240.24 222.33
  A 60.15 60.15 0.0 0 0 180.09 162.18
  A 60.15 60.15 0.0 0 0 119.94 222.33
  A 60.15 60.15 0.0 0 0 180.09 282.48
  A 60.15 60.15 0.0 0 0 240.24 222.33
  Z"
/>
<path fill="#616e7e" d="
  M 240.24 222.33
  A 60.15 60.15 0.0 0 1 180.09 282.48
  A 60.15 60.15 0.0 0 1 119.94 222.33
  A 60.15 60.15 0.0 0 1 180.09 162.18
  A 60.15 60.15 0.0 0 1 240.24 222.33
  Z
  M 225.59 222.32
  A 45.51 45.51 0.0 0 0 180.08 176.81
  A 45.51 45.51 0.0 0 0 134.57 222.32
  A 45.51 45.51 0.0 0 0 180.08 267.83
  A 45.51 45.51 0.0 0 0 225.59 222.32
  Z"
/>
<path fill="#616e7e" d="
  M 412.41 286.06
  L 415.30 296.21
  A 0.72 0.71 89.3 0 0 415.82 296.72
  L 428.75 299.89
  Q 429.26 300.02 429.31 300.55
  Q 430.20 309.09 429.47 317.66
  Q 429.42 318.18 428.91 318.32
  L 416.11 321.67
  Q 415.67 321.79 415.56 322.23
  L 412.89 332.38
  Q 412.74 332.94 413.16 333.35
  L 422.90 342.49
  Q 423.43 342.98 423.06 343.61
  L 414.79 357.95
  A 0.67 0.67 0.0 0 1 414.04 358.26
  L 400.70 354.79
  A 0.61 0.60 -60.2 0 0 400.11 354.96
  L 392.68 362.74
  Q 392.34 363.10 392.49 363.58
  L 396.37 376.11
  A 0.73 0.73 0.0 0 1 396.11 376.92
  Q 389.20 381.99 381.38 385.52
  Q 380.88 385.74 380.49 385.36
  L 371.00 375.98
  Q 370.68 375.65 370.24 375.78
  L 360.19 378.76
  Q 359.68 378.91 359.56 379.42
  L 356.38 392.13
  Q 356.25 392.64 355.74 392.70
  Q 347.40 393.66 339.04 392.88
  Q 338.45 392.82 338.30 392.25
  L 334.87 379.58
  A 0.75 0.75 0.0 0 0 334.33 379.04
  L 324.05 376.29
  Q 323.62 376.18 323.31 376.49
  L 313.89 386.25
  Q 313.43 386.73 312.85 386.41
  L 298.37 378.38
  A 0.87 0.87 0.0 0 1 297.96 377.37
  L 301.64 364.42
  A 0.52 0.51 -60.0 0 0 301.51 363.92
  L 293.76 355.98
  A 0.66 0.66 0.0 0 0 293.09 355.81
  L 280.06 359.82
  A 0.72 0.72 0.0 0 1 279.24 359.51
  L 270.52 345.13
  A 0.76 0.75 -37.9 0 1 270.64 344.20
  L 280.33 334.75
  A 0.67 0.66 60.8 0 0 280.51 334.10
  L 277.77 323.57
  Q 277.62 322.98 277.02 322.85
  L 264.25 320.19
  A 0.81 0.80 -87.5 0 1 263.62 319.50
  Q 262.57 310.96 263.41 302.40
  Q 263.46 301.90 263.95 301.76
  L 277.18 298.14
  A 0.68 0.68 0.0 0 0 277.66 297.64
  L 279.92 287.35
  Q 280.02 286.89 279.67 286.56
  L 270.11 277.42
  Q 269.75 277.07 269.96 276.61
  Q 273.50 268.82 278.51 261.86
  Q 278.87 261.37 279.46 261.53
  L 292.15 265.07
  A 0.66 0.65 29.4 0 0 292.77 264.90
  L 300.30 257.24
  Q 300.59 256.94 300.47 256.55
  L 296.59 243.99
  Q 296.44 243.48 296.85 243.15
  Q 303.61 237.71 311.61 234.39
  Q 312.15 234.17 312.56 234.58
  L 321.85 243.96
  Q 322.24 244.35 322.77 244.19
  L 332.61 241.28
  Q 333.14 241.12 333.27 240.60
  L 336.51 227.75
  Q 336.60 227.36 337.00 227.32
  Q 345.57 226.33 354.17 227.12
  A 0.72 0.72 0.0 0 1 354.80 227.67
  L 357.94 240.29
  Q 358.07 240.81 358.58 240.95
  L 368.92 243.74
  A 0.72 0.72 0.0 0 0 369.64 243.54
  L 378.63 233.88
  Q 379.06 233.42 379.64 233.65
  Q 387.69 236.79 394.55 242.03
  Q 394.99 242.36 394.83 242.89
  L 391.23 255.40
  Q 391.07 255.96 391.49 256.36
  L 399.14 263.60
  Q 399.45 263.89 399.86 263.78
  L 412.59 260.25
  Q 413.57 259.98 414.08 260.86
  L 422.26 274.72
  Q 422.60 275.30 422.12 275.78
  L 412.65 285.15
  Q 412.25 285.54 412.41 286.06
  Z
  M 400.26 309.95
  A 53.80 53.80 0.0 0 0 346.46 256.15
  A 53.80 53.80 0.0 0 0 292.66 309.95
  A 53.80 53.80 0.0 0 0 346.46 363.75
  A 53.80 53.80 0.0 0 0 400.26 309.95
  Z"
/>
<path fill="#aad4c8" d="
  M 400.26 309.95
  A 53.80 53.80 0.0 0 1 346.46 363.75
  A 53.80 53.80 0.0 0 1 292.66 309.95
  A 53.80 53.80 0.0 0 1 346.46 256.15
  A 53.80 53.80 0.0 0 1 400.26 309.95
  Z
  M 398.11 309.95
  A 51.63 51.63 0.0 0 0 346.48 258.32
  A 51.63 51.63 0.0 0 0 294.85 309.95
  A 51.63 51.63 0.0 0 0 346.48 361.58
  A 51.63 51.63 0.0 0 0 398.11 309.95
  Z"
/>
<path fill="#616e7e" d="
  M 398.11 309.95
  A 51.63 51.63 0.0 0 1 346.48 361.58
  A 51.63 51.63 0.0 0 1 294.85 309.95
  A 51.63 51.63 0.0 0 1 346.48 258.32
  A 51.63 51.63 0.0 0 1 398.11 309.95
  Z
  M 378.03 309.09
  A 31.46 31.46 0.0 0 0 346.57 277.63
  A 31.46 31.46 0.0 0 0 315.11 309.09
  A 31.46 31.46 0.0 0 0 346.57 340.55
  A 31.46 31.46 0.0 0 0 378.03 309.09
  Z"
/>
</svg>
